<?xml version="1.0" encoding="UTF-8" standalone="no"?>
<!DOCTYPE svg PUBLIC "-//W3C//DTD SVG 1.1//EN" "http://www.w3.org/Graphics/SVG/1.1/DTD/svg11.dtd">
<svg width="100%" height="100%" viewBox="0 0 286 313" version="1.1" xmlns="http://www.w3.org/2000/svg" xmlns:xlink="http://www.w3.org/1999/xlink" xml:space="preserve" xmlns:serif="http://www.serif.com/" style="fill-rule:evenodd;clip-rule:evenodd;stroke-linejoin:round;stroke-miterlimit:2;">
    <g transform="matrix(1,0,0,1,-69.824162,-64.215079)">
        <g id="Artboard8" transform="matrix(1,0,0,1,-2588,15)">
            <rect x="2606" y="0" width="400" height="430" style="fill:none;"/>
            <g transform="matrix(1,0,0,1,2032,-531)">
                <g>
                    <path d="M856.574,889.448C850.103,879.216 848.994,877.2 848.38,879.441C847.95,881.01 849.983,891.333 846.459,892.012C840.385,893.183 840.609,890.644 840.699,884.503C840.92,869.36 840.28,864.451 842.462,864.298C846.516,864.012 848.796,862.74 855.753,875.329C860.791,884.445 855.033,864.345 860.498,864.362C864.582,864.375 865.674,864.419 865.622,868.503C865.337,890.561 866.047,891.102 864.657,891.741C860.288,893.748 859.816,893.041 856.574,889.448Z" style="fill:rgb(252,238,225);"/>
                    <path d="M695.849,886.499C695.704,891.309 694.346,891.254 689.536,891.001C686.07,890.819 688.791,880.859 685.476,880.813C685.005,880.807 679.979,880.738 679.847,882.546C679.328,889.609 680.783,891.301 677.495,891.386C677.035,891.398 672.25,891.522 671.837,890.374C671.639,889.827 670.796,866.453 671.199,865.353C671.653,864.116 678.878,862.542 679.176,866.526C679.645,872.789 678.726,873.517 680.623,874.179C681.719,874.562 687.27,874.931 687.318,872.485C687.456,865.531 686.553,864.874 688.327,864.155C689.412,863.715 694.492,863.439 695.153,864.68C695.674,865.659 695.695,874.921 695.849,886.499Z" style="fill:rgb(253,240,228);"/>
                    <path d="M871.714,881.506C871.961,866.564 871.949,866.642 872.044,866.336C872.695,864.259 890.315,864.715 890.845,867.426C892.499,875.889 880.373,869.562 879.88,873.525C879.492,876.644 888.076,874.901 888.206,877.53C888.446,882.393 886.413,881.406 881.536,881.839C881.278,881.862 879.063,882.058 880.02,884.701C881.389,888.482 890.852,881.755 890.542,890.502C890.456,892.935 889.344,892.98 873.524,892.257C870.421,892.116 871.672,883.717 871.714,881.506Z" style="fill:rgb(251,237,224);"/>
                    <path d="M767.637,866.644C775.674,860.905 783.717,865.085 783.744,867.502C783.795,872.106 777.722,870.035 776.468,870.126C768.011,870.738 782.213,876.277 784.034,879.773C790.739,892.644 764.401,894.682 765.123,887.442C765.678,881.871 771.322,885.949 774.659,884.901C783.529,882.117 757.923,879.184 767.637,866.644Z" style="fill:rgb(252,239,226);"/>
                    <path d="M717.48,876.516C708.014,861.826 735.235,861.155 733.787,867.555C732.676,872.47 728.518,869.077 725.325,870.044C719.594,871.78 731.085,875.044 733.583,878.431C742.991,891.188 714.852,894.835 715.329,887.487C715.659,882.402 721.618,885.064 723.538,884.887C731.284,884.174 720.425,879.602 717.48,876.516Z" style="fill:rgb(252,238,226);"/>
                    <path d="M659.966,888.479C660.06,893.38 658.434,893.052 653.512,893.075C649.054,893.097 653.826,872.243 648.506,872.3C645.359,872.334 642.503,874.273 642.49,867.5C642.487,865.959 642.893,864.778 661.499,864.426C666.402,864.334 668.181,864.67 667.003,869.433C666.359,872.033 660.539,871.144 659.508,872.504C659.21,872.898 659.127,872.955 659.966,888.479Z" style="fill:rgb(253,242,231);"/>
                    <path d="M807.498,864.209C812.744,864.187 820.589,863.975 821.393,864.643C822.218,865.329 821.986,868.231 821.961,868.546C821.617,872.853 810.853,868.638 810.882,872.523C810.912,876.756 818.886,874.162 819.375,876.527C820.876,883.791 810.881,878.872 810.742,883.509C810.682,885.509 810.683,887.511 810.592,889.509C810.471,892.163 807.136,891.792 804.484,891.66C802.078,891.54 802.381,890.331 802.565,868.501C802.607,863.514 804.426,864.422 807.498,864.209Z" style="fill:rgb(252,239,226);"/>
                    <path d="M826.172,888.504C826.224,871.232 826.057,864.866 827.407,864.317C827.947,864.098 834.215,861.551 834.356,866.505C835.047,890.643 834.543,891.652 832.522,891.7C828.232,891.801 826.648,892.79 826.172,888.504Z" style="fill:rgb(251,237,224);"/>
                    <path d="M706.498,863.837C706.695,863.887 709.743,863.135 709.885,866.466C710.852,889.212 711.339,889.737 709.635,890.656C708.509,891.263 702.216,892.173 702.098,888.529C701.335,865.042 701.599,864.147 703.555,863.863C704.526,863.722 705.527,863.978 706.498,863.837Z" style="fill:rgb(250,237,224);"/>
                    <path d="M752.225,869.497C752.372,865.714 751.977,865.629 752.745,864.708C753.316,864.023 757.137,864.14 757.521,864.151C760.253,864.235 760.576,865.39 760.457,884.499C760.428,889.116 761.099,891.027 756.486,890.686C751.223,890.297 752.441,887.494 752.225,869.497Z" style="fill:rgb(253,243,232);"/>
                </g>
                <path d="M888.164,853.165C886.42,853.518 821.798,847.982 756.511,849.924C731.509,850.668 731.601,850.699 706.505,850.177C674.473,849.511 649.243,853.788 648.346,851.565C648.127,851.022 648.185,850.989 648.136,799.501C648.063,724.064 648.83,723.37 647.376,722.812C645.941,722.261 626.173,734.012 625.825,725.515C625.658,721.433 655.334,710.069 750.364,665.208C767.755,656.998 767.773,656.753 769.415,656.995C771.05,657.236 803.31,672.522 812.712,677.053C820.88,680.99 821.402,680.243 821.588,679.53C822.152,677.371 820.193,664.081 823.521,663.596C823.796,663.556 845.88,663.09 847.231,663.91C849.822,665.481 846.4,692.692 849.461,694.557C856.048,698.57 909.253,721.158 910.529,724.488C913.685,732.726 898.602,726.554 897.64,726.16C890.069,723.061 889.023,721.709 888.935,723.614C888.381,735.668 889.596,849.292 888.164,853.165ZM835.497,777.159C831.704,777.424 829.781,775.641 829.706,779.51C829.609,784.487 828.531,839.934 830.257,841.733C831.319,842.839 845.216,842.195 870.5,842.487C874.222,842.53 877.688,844.801 878.194,837.479C878.475,833.431 879.441,829.42 875.505,829.348C856.362,828.998 852.359,830.356 852.292,826.509C852.258,824.529 851.04,816.623 854.502,816.535C868.916,816.167 870.726,817.836 870.892,814.559C871.212,808.24 872.155,803.861 867.496,803.757C859.548,803.579 852.242,804.616 852.183,801.522C852.129,798.717 851.217,791.615 854.499,791.49C862.622,791.179 875.93,793.107 876.586,790.523C876.625,790.366 877.181,779.965 876.198,778.745C875.11,777.396 854.225,777.195 835.497,777.159ZM678.995,820.742C682.164,820.454 681.402,822.054 685.94,828.173C694.499,839.715 694.654,840.736 696.404,841.648C699.035,843.019 699.243,842.118 733.491,841.227C736.728,841.143 737.709,833.529 739.315,828.426C739.633,827.414 739.959,826.38 752.486,826.856C754.821,826.944 755.119,829.378 755.172,829.586C757.392,838.202 755.62,841.672 764.499,841.724C771.799,841.767 779.432,842.503 778.792,839.461C777.934,835.384 768.578,802.762 762.169,781.596C759.854,773.95 757.488,776.058 749.488,775.763C737.068,775.304 734.492,773.843 732.9,778.627C732.102,781.024 718.073,834.289 717.327,837.422C716.733,839.918 714.119,836.073 711.951,833.17C700.496,817.828 701.379,816.648 702.702,815.794C704.909,814.371 723.666,802.271 710.121,783.812C700.464,770.653 661.948,776.169 658.653,776.96C656.844,777.394 657.156,783.163 657.143,789.499C657.051,834.934 656.298,840.147 657.616,841.376C658.73,842.415 676.895,840.59 677.485,840.451C679.024,840.089 679.709,839.599 678.995,820.742ZM678.338,789.499C678.338,789.494 678.069,786.956 679.465,786.423C694.154,780.821 700.976,809.339 680.501,809.927C677.576,810.011 678.247,806.563 678.338,789.499ZM744.119,804.422C746.129,794.034 745.96,793.747 746.554,793.709C748.144,793.608 751.436,813.978 751.295,814.434C750.892,815.732 744.153,815.41 743.527,815.38C741.15,815.266 744.017,804.946 744.119,804.422ZM745.07,734.503C745.076,739.266 747.094,759.599 736.502,754.496C729.067,750.913 736.213,705.761 732.637,704.266C731.432,703.762 715.973,704.191 715.315,705.342C715.147,705.635 711.298,748.794 716.982,758.197C723.989,769.788 759.238,773.567 762.731,752.546C763.336,748.912 763.583,747.424 763.499,706.5C763.491,702.405 761.455,703.255 747.534,703.855C744.023,704.006 745.352,711.019 745.065,731.5C745.044,733.008 745.068,732.931 745.07,734.503ZM875.494,767.898C878.99,767.684 880.177,768.845 880.276,766.462C880.637,757.766 880.256,720.507 880.215,716.511C880.2,715.058 880.191,714.135 864.575,707.272C861.992,706.137 862.755,708.628 862.719,729.501C862.717,730.6 863.405,739.644 861.356,736.745C859.193,733.685 843.872,705.819 841.64,705.094C840.775,704.814 827.224,703.976 826.51,704.516C825.531,705.257 825.96,705.584 825.486,762.5C825.447,767.146 826.886,766.923 831.516,767.09C836.878,767.284 842.52,768.557 842.502,764.5C842.4,740.5 842.274,740.516 842.348,738.432C842.461,735.254 845.639,740.986 845.813,741.3C851.356,751.297 858.701,762.455 859.885,764.255C862.946,768.904 866.789,767.644 875.494,767.898ZM690.567,766.941C692.227,766.613 708.307,764.997 709.689,751.52C711.581,733.071 693.014,735.246 699.349,731.308C709.359,725.086 707.491,712.188 702.109,707.966C686.263,695.537 658.618,712.147 658.386,712.254C655.828,713.428 656.152,714.153 656.413,734.501C656.812,765.684 656.287,766.792 658.557,767.227C670.343,769.485 688.027,767.261 690.567,766.941ZM679.49,714.281C692.593,714.811 689.506,727.481 679.508,728.583C674.956,729.084 675.812,727.013 675.799,722.498C675.783,717.113 674.188,715.144 679.49,714.281ZM675.893,744.5C676.104,741.86 674.816,740.624 677.481,740.393C693.741,738.985 693.486,753.946 682.497,756.485C673.697,758.518 675.721,753.499 675.893,744.5ZM769.821,717.498C769.864,766.159 769.774,767.079 771.535,767.362C772.723,767.554 787.679,767.84 788.782,766.847C790.263,765.513 789.252,748.207 789.155,747.449C787.763,736.622 800.922,767.224 806.485,767.728C806.964,767.772 821.459,767.604 822.323,766.374C823.584,764.58 807.906,744.297 809.831,741.752C811.156,740 818.525,736.976 819.571,724.506C822.033,695.159 771.79,703.176 770.45,704.445C769.455,705.387 769.8,712.306 769.821,717.498ZM788.869,727.499C788.907,717.335 788.875,717.399 788.91,716.522C789.044,713.207 796.151,712.858 799.388,717.568C805.214,726.042 794.355,739.002 789.697,736.118C788.906,735.628 788.872,728.191 788.869,727.499ZM802.498,840.924C808.834,841.002 809.088,841.819 810.482,840.482C812.069,838.957 809.452,794.181 811.48,792.471C812.995,791.193 824.877,794.491 824.859,789.506C824.835,782.539 826.312,778.076 820.49,777.92C816.802,777.821 775.694,776.719 774.371,777.149C772.398,777.79 772.132,790.909 774.496,791.515C776.302,791.978 787.718,790.902 787.867,793.419C788.382,802.085 787.366,839.78 789.464,840.581C790.803,841.092 790.781,840.789 802.498,840.924Z" style="fill:rgb(253,240,228);"/>
                <g>
                    <path d="M834.503,657.042C825.947,656.907 826.035,656.83 822.506,656.922C812.618,657.18 816.21,663.685 814.489,665.491C812.27,667.818 774.05,645.572 769.537,645.157C766.369,644.866 690.693,682.61 655.385,699.262C650.068,701.77 644.603,686.372 644.246,684.557C639.931,662.667 656.105,652.334 658.394,650.275C663.624,645.571 659.226,652.529 658.326,659.48C656.789,671.351 670.341,677.431 671.024,672.435C674.303,648.423 686.16,637.34 701.431,624.381C704.577,621.711 703.023,625.655 704.396,629.534C712.536,652.527 722.996,646.678 726.325,645.114C751.437,633.316 741.914,603.471 743.361,595.474C745.648,582.837 761.197,577.624 760.225,581.44C757.22,593.231 758.115,596.249 774.171,606.99C795.615,621.336 792.264,632.009 796.132,627.165C807.751,612.615 791.963,599.459 800.488,603.531C819.981,612.839 815.659,631.932 815.305,636.488C814.628,645.199 821.431,643.68 822.408,643.259C830.221,639.891 825.699,628.864 825.711,628.504C825.84,624.648 848.208,639.14 859.017,654.778C860.842,657.418 857.837,657.28 834.503,657.042Z" style="fill:rgb(211,66,2);"/>
                    <path d="M868.545,667.536C868.545,667.535 872.701,663.018 872.522,654.499C872.434,650.314 870.587,645.852 873.539,647.394C882.688,652.173 888.149,660.361 889.089,661.77C900.615,679.05 885.52,694.929 894.531,692.661C900.41,691.181 901.301,684.84 901.618,684.626C906.063,681.627 910.193,710.094 902.493,710.367C901.334,710.409 857.836,688.131 857.764,688.087C853.852,685.735 856.127,663.614 857.466,662.458C861.738,658.77 862.65,674.42 868.545,667.536Z" style="fill:rgb(211,64,2);"/>
                    <path d="M733.647,626.572C733.448,626.907 730.075,632.599 729.742,629.487C729.71,629.186 730.73,627.749 729.563,625.464C726.452,619.373 711.739,616.28 727.37,595.325C733.492,587.119 725.433,600.127 729.972,609.274C732.585,614.539 736.829,617.843 733.647,626.572Z" style="fill:rgb(211,60,1);"/>
                </g>
            </g>
        </g>
    </g>
</svg>
