<?xml version="1.0" encoding="UTF-8" standalone="no"?>
<!DOCTYPE svg PUBLIC "-//W3C//DTD SVG 1.1//EN" "http://www.w3.org/Graphics/SVG/1.1/DTD/svg11.dtd">
<svg width="100%" height="100%" viewBox="0 0 440 440" version="1.1" xmlns="http://www.w3.org/2000/svg" xmlns:xlink="http://www.w3.org/1999/xlink" xml:space="preserve" xmlns:serif="http://www.serif.com/" style="fill-rule:evenodd;clip-rule:evenodd;stroke-linejoin:round;stroke-miterlimit:2;">
    <g id="Artboard8" transform="matrix(1,0,0,1,5,8)">
        <rect x="-5" y="-8" width="440" height="440" style="fill:none;"/>
        <clipPath id="_clip1">
            <rect x="-5" y="-8" width="440" height="440"/>
        </clipPath>
        <g clip-path="url(#_clip1)">
            <g transform="matrix(1.109302,0,0,1.109302,-35.390698,-40)">
                <g transform="matrix(0.901468,0,0,0.901468,31.903564,36.0587)">
                    <path d="M424,112.5L424,319.5C424,376.623 377.623,423 320.5,423L113.5,423C56.377,423 10,376.623 10,319.5L10,112.5C10,55.377 56.377,9 113.5,9L320.5,9C377.623,9 424,55.377 424,112.5Z" style="fill:rgb(235,235,235);"/>
                </g>
                <g id="Artboard7" transform="matrix(0.945493,0,0,0.945493,-2000.87631,6.310273)">
                    <rect x="2156" y="0" width="400" height="430" style="fill:none;"/>
                    <g transform="matrix(1,0,0,1,1578.737245,-21)">
                        <path d="M874.5,416.903C860.381,416.643 846.487,414.333 833.491,413.99C815.18,413.507 811.428,414.953 800.478,416.323C768.986,420.263 768.931,409.332 737.55,413.873C732.354,414.625 677.526,422.56 671.961,416.078C668.647,412.218 682.933,409.493 683.187,409.187C684.805,407.232 682.465,404.857 651.478,408.311C648.845,408.605 618.443,411.994 619.077,401.468C619.345,397.027 630.304,393.639 631.437,393.289C648.178,388.115 608.8,383.003 604.398,376.582C591.887,358.338 698.337,356.565 704.497,356.696C792.378,358.567 792.37,354.011 850.516,357.021C869.755,358.017 928.713,360.147 941.202,369.901C954.337,380.16 924.558,384.919 917.663,387.874C903.612,393.897 931.171,392.458 930.2,401.485C928.726,415.199 886.532,404.361 875.428,406.121C862.474,408.176 883.305,410.547 885.063,412.853C887.82,416.47 875.405,416.874 874.5,416.903ZM656.92,396.485C657.512,400.831 659.116,399.841 663.461,399.291C667.846,398.735 662.65,378.709 666.382,378.133C671.582,377.331 673.741,377.587 672.521,372.494C671.888,369.854 649.519,371.6 648.571,372.562C648.516,372.617 646.345,378.612 650.492,378.682C654.196,378.745 655.95,376.87 656.188,380.535C656.638,387.452 656.88,395.208 656.92,396.485ZM725.55,385.43C729.759,387.799 735.563,390.07 731.318,392.052C729.633,392.838 720.076,390.038 721.491,395.504C722.933,401.074 747.664,399.202 740.533,386.479C738.13,382.192 725.608,379.697 731.684,376.959C734.041,375.897 739.354,379.168 740.114,374.457C741.351,366.796 713.864,370.933 723.444,383.548C724.141,384.466 724.156,384.311 725.55,385.43ZM716.086,374.503C716.072,374.253 715.936,371.721 715.619,371.398C714.948,370.714 710.48,370.678 709.314,371.093C707.547,371.721 707.829,372.342 708.124,394.506C708.184,399.046 709.87,398.419 714.472,398.089C716.691,397.93 716.298,396.786 716.086,374.503ZM767.106,382.504C766.935,374.539 769.35,370.567 761.459,371.149C758.256,371.385 759.067,376.429 759.064,387.501C759.062,395.315 757.649,398.797 765.453,398.138C767.819,397.939 767.117,390.31 767.106,382.504ZM841.893,375.501C841.638,371.665 841.987,371.482 841.187,370.893C840.48,370.372 836.874,370.429 836.497,370.435C833.552,370.481 833.751,371.923 833.813,389.5C833.835,395.98 833.04,398.51 839.486,398.183C842.533,398.029 841.875,395.821 841.893,375.501ZM787.642,383.229C786.622,382.745 781.67,380.499 781.32,379.598C779.605,375.173 788.651,377.785 789.42,377.336C797.64,372.538 778.199,366.256 773.384,375.432C768.02,385.654 785.029,387.482 783.117,391.273C782.479,392.539 776.103,391.594 775.5,391.504C773.648,391.229 771.404,394.818 772.755,396.268C780.037,404.08 802.895,393.505 787.642,383.229ZM861.498,391.502C865.269,396.845 864.915,398.327 871.477,398.276C874.134,398.256 873.535,391.243 873.605,380.501C873.654,373.16 874.813,369.858 867.523,370.618C863.431,371.045 868.933,391.128 863.009,380.855C855.854,368.448 853.203,370.264 850.512,370.595C848.529,370.839 847.837,371.571 848.591,395.497C848.724,399.719 856,399.395 856.145,395.483C856.187,394.355 855.134,380.937 858.754,387.301C858.952,387.65 859.497,388.607 861.498,391.502ZM677.044,383.512C677.15,392.278 676.228,398.042 679.512,398.113C679.984,398.123 684.972,398.23 685.171,396.435C685.389,394.465 685.256,392.472 685.322,390.49C685.463,386.2 693.149,387.179 693.285,389.527C693.399,391.516 693.395,393.511 693.491,395.501C693.666,399.116 701.671,399.211 701.686,395.506C701.693,393.603 701.775,373.11 701.081,371.722C700.911,371.383 693.649,368.194 693.326,374.49C693.063,379.612 693.893,380.069 692.284,381.071C692.016,381.239 685.676,382.267 685.041,379.612C684.093,375.649 687.868,370.359 678.435,371.185C676.015,371.396 676.959,380.682 677.044,383.512ZM895.482,398.91C901.963,398.665 898.622,392.514 896.517,392.372C889.87,391.924 888.754,393.286 888.043,390.616C886.716,385.625 896.342,390.347 896.384,385.495C896.446,378.362 887.385,384.629 888.083,379.434C888.106,379.263 888.28,377.966 889.555,377.872C896.233,377.379 900.386,380.126 899.106,373.53C898.79,371.901 898.248,371.663 884.515,371.111C877.956,370.848 879.731,373.913 879.697,380.502C879.62,395.523 879.581,396.73 879.834,397.351C880.444,398.85 888.324,398.68 895.482,398.91ZM827.049,384.504C826.022,380.52 824.598,382.037 820.462,381.792C817.821,381.636 817.132,377.442 820.458,377.122C826.584,376.531 829.737,378.73 829.378,372.513C829.299,371.158 828.911,370.013 812.515,370.712C809.244,370.852 809.954,374.36 809.876,390.506C809.848,396.148 807.849,398.86 813.504,398.81C819.9,398.753 817.553,395.716 818.127,389.405C818.449,385.866 826.349,391.107 827.049,384.504Z" style="fill:rgb(44,28,20);"/>
                        <path d="M750.939,113.464C750.152,108.935 750.058,109.055 749.246,104.54C748.831,102.238 745.83,85.565 764.516,79.61C769.79,77.929 758.925,86.711 769.592,98.412C780.705,110.603 786.615,104.72 800.8,127.286C802.361,129.769 806.531,124.745 807.665,119.535C809.06,113.123 804.697,103.789 804.108,102.53C802.582,99.266 813.743,103.503 819.079,110.803C828.644,123.888 816.477,146.065 828.421,143.14C836.344,141.199 830.905,127.378 832.519,126.572C832.707,126.478 851.114,133.665 867.265,155.652C871.724,161.722 846.73,158.384 831.485,159.265C823.011,159.755 824.86,167.029 824.094,168.233C822.272,171.1 781.509,145.646 776.347,147.006C771.693,148.233 731.36,168.524 727.486,170.472C726.849,170.793 662.286,202.867 659.598,203.762C652.44,206.145 634.289,169.813 664.509,150.528C668.231,148.153 663.195,155.761 662.523,162.502C661.307,174.699 673.542,177.287 674.506,177.285C677.522,177.279 676.734,159.87 689.94,142.842C691.994,140.193 708.985,121.774 709.608,125.454C709.956,127.516 713.001,145.523 721.391,148.787C726.228,150.67 753.471,146.017 750.939,113.464Z" style="fill:rgb(214,67,9);"/>
                        <path d="M658.949,303.497C659.076,284.982 659.063,284.994 659.098,284.428C659.346,280.347 687.111,280.573 691.471,280.87C694.146,281.052 717.458,282.637 719.309,299.53C721.736,321.678 703.17,320.627 706.903,326.247C718.55,343.783 719.196,343.309 720.197,344.839C722.272,348.01 722.853,341.447 724.715,334.559C738.616,283.11 737.503,281.665 740.6,280.938C742.555,280.478 765.873,281.773 766.264,281.993C769.041,283.555 784.632,341.394 786.039,346.614C786.985,350.124 783.676,349.969 769.498,349.594C761.837,349.392 764.346,345.787 760.73,335.396C759.925,333.084 745.627,333.028 744.825,335.614C741.967,344.828 743.899,349.202 736.507,349.087C708.501,348.654 708.52,350.928 701.42,349.9C698.594,349.491 684.546,327.647 683.489,327.555C681.974,327.423 683.642,328.631 682.897,346.56C682.825,348.291 682.174,348.687 661.489,349.8C658.16,349.979 659.722,347.752 658.949,303.497ZM685.494,292.081C680.076,293.025 681.912,295.07 681.886,300.501C681.835,311.154 680.862,317.209 684.522,316.743C693.489,315.603 696.496,310.552 697.15,306.436C699.286,293 686.97,292.18 685.494,292.081ZM749.914,310.581C749.312,313.787 747.158,321.616 749.376,321.883C750.006,321.959 757.184,322.826 757.186,320.491C757.189,315.509 755.989,315.752 753.513,301.493C753.12,299.229 751.893,300.596 751.792,300.709C751.714,300.796 750.059,309.791 749.914,310.581ZM788.497,274.038C780.668,274.054 777.169,276.309 777.063,268.51C777.061,268.303 776.655,211.048 777.203,209.396C778.221,206.327 817.447,201.342 826.368,217.574C831.026,226.051 828.634,239.245 821.379,245.364C816.16,249.767 819.604,250.843 823.038,256.768C831.435,271.253 833.108,272.919 830.435,273.156C814.853,274.538 813.647,274.965 809.935,269.224C803.52,259.303 796.889,245.034 797.542,255.5C798.661,273.455 797.054,273.82 795.576,273.896C795.01,273.926 795.052,273.907 788.497,274.038ZM806.651,237.624C807.341,236.639 812.026,229.956 808.177,222.67C805.26,217.148 798.345,218.572 797.758,218.918C796.409,219.714 796.515,220.085 796.924,238.488C797.031,243.29 802.541,241.668 806.651,237.624ZM852.5,350.062C843.127,350.087 838.697,350.831 838.664,347.494C838.613,342.391 838.045,285.496 838.895,283.697C839.791,281.802 859.495,283.116 869.503,282.932C886.979,282.61 887.083,285.086 887.143,286.525C887.308,290.487 887.883,297.542 885.602,297.908C880.136,298.785 862.271,294.923 862.09,299.456C862.003,301.618 860.714,309.535 864.479,309.727C879.533,310.495 881.535,308.805 881.659,312.491C881.976,321.95 881.594,323.126 878.488,323.147C868.591,323.214 862.309,322.199 862.198,325.469C862.062,329.476 861.072,335.649 864.454,335.997C872.54,336.831 888.722,333.931 888.998,338.46C889.664,349.365 887.522,349.79 886.599,349.973C885.892,350.114 885.542,350.188 852.5,350.062ZM745.498,274.036C716.368,272.728 719.025,257.545 719.817,229.507C720.34,210.992 719.602,209.18 723.527,208.921C737.972,207.971 740.74,206.841 740.684,212.502C740.398,241.544 736.438,264.713 747.612,260.789C756.969,257.504 748.249,208.756 753.42,208.199C770.244,206.388 770.613,208.092 770.699,209.475C770.81,211.242 771.015,252.033 770.773,253.543C767.504,273.947 758.691,272.359 745.498,274.036ZM819.143,334.502C819.173,340.024 820.049,348.261 817.521,348.611C816.573,348.743 796.9,348.319 796.626,348.207C793.575,346.964 797.07,300.23 793.707,299.039C790.459,297.889 779.813,300.912 779.822,295.495C779.834,288.552 778.896,282.945 782.498,283.038C831.505,284.307 833.739,282.915 833.801,286.48C833.944,294.63 834.348,298.724 831.529,298.799C820.79,299.082 819.445,297.675 819.039,300.396C818.867,301.55 819.127,329.538 819.143,334.502ZM680.504,274.946C661.989,274.866 658.541,274.543 658.388,270.505C656.689,225.749 659.117,222.467 655.509,223.54C651.548,224.717 628.739,236.281 630.462,227.492C631.085,224.318 632.421,225.191 767.696,157.887C776.43,153.542 776.907,153.041 782.353,155.791C786.095,157.68 827.455,178.562 829.485,178.682C832.913,178.885 828.281,166.329 833.516,165.853C833.645,165.842 856.228,165.856 856.456,165.905C859.804,166.627 857.719,177.867 858.342,191.512C858.527,195.579 860.249,194.635 877.304,203.875C900.329,216.351 929.99,226.042 919.421,231.309C915.216,233.404 893.198,220.356 891.468,222.477C890.197,224.035 892.83,273.28 890.348,274.071C889.865,274.225 873.665,274.147 872.548,273.412C870.234,271.889 854.085,242.045 852.748,242.906C851.551,243.676 853.929,271.9 851.382,273.281C851.049,273.462 835.083,274.424 834.729,271.458C834.089,266.095 834.406,216.296 834.437,211.499C834.465,206.999 837.119,208.067 849.467,208.964C852.57,209.19 852.693,209.687 863.027,226.777C868.495,235.82 873.935,246.149 873.652,240.532C872.479,217.259 876.305,214.217 869.324,210.857C792.88,174.062 786.782,171.69 779.379,168.812C775.922,167.467 775.698,168.558 736.608,186.735C695.54,205.833 690.846,206.422 694.419,207.609C699.426,209.27 708.297,206.611 711.682,221.469C713.565,229.74 704.785,235.918 703.658,236.711C698.463,240.366 717.347,239.572 715.079,257.437C713.204,272.199 695.021,274.427 680.504,274.946ZM679.066,226.497C679.083,231.063 677.77,234.917 685.405,233.151C696.499,230.585 692.724,215.683 680.62,218.97C680.463,219.012 679.492,219.276 679.197,220.418C679.075,220.889 679.187,220.869 679.066,226.497ZM679.1,255.5C679.212,259.208 676.768,264.305 686.468,262.366C696.755,260.31 699.455,245.44 682.512,245.826C682.274,245.832 680.314,245.877 679.628,246.601C678.853,247.42 679.237,247.559 679.1,255.5Z" style="fill:rgb(42,26,19);"/>
                        <path d="M917.053,200.519C916.516,211.665 913.929,214.814 908.601,212.28C905.21,210.667 870.917,194.355 866.603,191.34C866.378,191.183 864.776,190.063 864.705,188.486C864.62,186.605 863.726,166.771 865.914,164.97C869.202,162.263 872.482,177.768 878.054,167.253C883.231,157.485 876.777,145.826 881.456,148.599C911.924,166.655 899.416,191.588 900.149,193.651C901.223,196.674 907.91,194.305 909.729,188.59C910.829,185.134 911.898,186.728 912.024,186.917C916.137,193.051 916.112,193.154 917.053,200.519Z" style="fill:rgb(214,67,9);"/>
                        <path d="M735.083,103.509C737.679,118.563 744.243,117.789 741.102,127.373C740.435,129.409 736.653,136.606 736.762,129.476C736.891,121.018 716.286,120.731 733.081,97.061C738.937,88.807 735.271,99.402 735.26,99.469C735.209,99.789 735.247,99.769 735.083,103.509Z" style="fill:rgb(214,67,9);"/>
                    </g>
                </g>
            </g>
        </g>
    </g>
</svg>
