<?xml version="1.0" encoding="UTF-8" standalone="no"?>
<!DOCTYPE svg PUBLIC "-//W3C//DTD SVG 1.1//EN" "http://www.w3.org/Graphics/SVG/1.1/DTD/svg11.dtd">
<svg width="100%" height="100%" viewBox="0 0 286 273" version="1.1" xmlns="http://www.w3.org/2000/svg" xmlns:xlink="http://www.w3.org/1999/xlink" xml:space="preserve" xmlns:serif="http://www.serif.com/" style="fill-rule:evenodd;clip-rule:evenodd;stroke-linejoin:round;stroke-miterlimit:2;">
    <g transform="matrix(1,0,0,1,-69.824162,-64.215079)">
        <g id="Artboard8" transform="matrix(1,0,0,1,-2588,15)">
            <rect x="2606" y="0" width="400" height="430" style="fill:none;"/>
            <g transform="matrix(1,0,0,1,2032,-531)">
                <path d="M888.164,853.165C886.42,853.518 821.798,847.982 756.511,849.924C731.509,850.668 731.601,850.699 706.505,850.177C674.473,849.511 649.243,853.788 648.346,851.565C648.127,851.022 648.185,850.989 648.136,799.501C648.063,724.064 648.83,723.37 647.376,722.812C645.941,722.261 626.173,734.012 625.825,725.515C625.658,721.433 655.334,710.069 750.364,665.208C767.755,656.998 767.773,656.753 769.415,656.995C771.05,657.236 803.31,672.522 812.712,677.053C820.88,680.99 821.402,680.243 821.588,679.53C822.152,677.371 820.193,664.081 823.521,663.596C823.796,663.556 845.88,663.09 847.231,663.91C849.822,665.481 846.4,692.692 849.461,694.557C856.048,698.57 909.253,721.158 910.529,724.488C913.685,732.726 898.602,726.554 897.64,726.16C890.069,723.061 889.023,721.709 888.935,723.614C888.381,735.668 889.596,849.292 888.164,853.165ZM835.497,777.159C831.704,777.424 829.781,775.641 829.706,779.51C829.609,784.487 828.531,839.934 830.257,841.733C831.319,842.839 845.216,842.195 870.5,842.487C874.222,842.53 877.688,844.801 878.194,837.479C878.475,833.431 879.441,829.42 875.505,829.348C856.362,828.998 852.359,830.356 852.292,826.509C852.258,824.529 851.04,816.623 854.502,816.535C868.916,816.167 870.726,817.836 870.892,814.559C871.212,808.24 872.155,803.861 867.496,803.757C859.548,803.579 852.242,804.616 852.183,801.522C852.129,798.717 851.217,791.615 854.499,791.49C862.622,791.179 875.93,793.107 876.586,790.523C876.625,790.366 877.181,779.965 876.198,778.745C875.11,777.396 854.225,777.195 835.497,777.159ZM678.995,820.742C682.164,820.454 681.402,822.054 685.94,828.173C694.499,839.715 694.654,840.736 696.404,841.648C699.035,843.019 699.243,842.118 733.491,841.227C736.728,841.143 737.709,833.529 739.315,828.426C739.633,827.414 739.959,826.38 752.486,826.856C754.821,826.944 755.119,829.378 755.172,829.586C757.392,838.202 755.62,841.672 764.499,841.724C771.799,841.767 779.432,842.503 778.792,839.461C777.934,835.384 768.578,802.762 762.169,781.596C759.854,773.95 757.488,776.058 749.488,775.763C737.068,775.304 734.492,773.843 732.9,778.627C732.102,781.024 718.073,834.289 717.327,837.422C716.733,839.918 714.119,836.073 711.951,833.17C700.496,817.828 701.379,816.648 702.702,815.794C704.909,814.371 723.666,802.271 710.121,783.812C700.464,770.653 661.948,776.169 658.653,776.96C656.844,777.394 657.156,783.163 657.143,789.499C657.051,834.934 656.298,840.147 657.616,841.376C658.73,842.415 676.895,840.59 677.485,840.451C679.024,840.089 679.709,839.599 678.995,820.742ZM678.338,789.499C678.338,789.494 678.069,786.956 679.465,786.423C694.154,780.821 700.976,809.339 680.501,809.927C677.576,810.011 678.247,806.563 678.338,789.499ZM744.119,804.422C746.129,794.034 745.96,793.747 746.554,793.709C748.144,793.608 751.436,813.978 751.295,814.434C750.892,815.732 744.153,815.41 743.527,815.38C741.15,815.266 744.017,804.946 744.119,804.422ZM745.07,734.503C745.076,739.266 747.094,759.599 736.502,754.496C729.067,750.913 736.213,705.761 732.637,704.266C731.432,703.762 715.973,704.191 715.315,705.342C715.147,705.635 711.298,748.794 716.982,758.197C723.989,769.788 759.238,773.567 762.731,752.546C763.336,748.912 763.583,747.424 763.499,706.5C763.491,702.405 761.455,703.255 747.534,703.855C744.023,704.006 745.352,711.019 745.065,731.5C745.044,733.008 745.068,732.931 745.07,734.503ZM875.494,767.898C878.99,767.684 880.177,768.845 880.276,766.462C880.637,757.766 880.256,720.507 880.215,716.511C880.2,715.058 880.191,714.135 864.575,707.272C861.992,706.137 862.755,708.628 862.719,729.501C862.717,730.6 863.405,739.644 861.356,736.745C859.193,733.685 843.872,705.819 841.64,705.094C840.775,704.814 827.224,703.976 826.51,704.516C825.531,705.257 825.96,705.584 825.486,762.5C825.447,767.146 826.886,766.923 831.516,767.09C836.878,767.284 842.52,768.557 842.502,764.5C842.4,740.5 842.274,740.516 842.348,738.432C842.461,735.254 845.639,740.986 845.813,741.3C851.356,751.297 858.701,762.455 859.885,764.255C862.946,768.904 866.789,767.644 875.494,767.898ZM690.567,766.941C692.227,766.613 708.307,764.997 709.689,751.52C711.581,733.071 693.014,735.246 699.349,731.308C709.359,725.086 707.491,712.188 702.109,707.966C686.263,695.537 658.618,712.147 658.386,712.254C655.828,713.428 656.152,714.153 656.413,734.501C656.812,765.684 656.287,766.792 658.557,767.227C670.343,769.485 688.027,767.261 690.567,766.941ZM679.49,714.281C692.593,714.811 689.506,727.481 679.508,728.583C674.956,729.084 675.812,727.013 675.799,722.498C675.783,717.113 674.188,715.144 679.49,714.281ZM675.893,744.5C676.104,741.86 674.816,740.624 677.481,740.393C693.741,738.985 693.486,753.946 682.497,756.485C673.697,758.518 675.721,753.499 675.893,744.5ZM769.821,717.498C769.864,766.159 769.774,767.079 771.535,767.362C772.723,767.554 787.679,767.84 788.782,766.847C790.263,765.513 789.252,748.207 789.155,747.449C787.763,736.622 800.922,767.224 806.485,767.728C806.964,767.772 821.459,767.604 822.323,766.374C823.584,764.58 807.906,744.297 809.831,741.752C811.156,740 818.525,736.976 819.571,724.506C822.033,695.159 771.79,703.176 770.45,704.445C769.455,705.387 769.8,712.306 769.821,717.498ZM788.869,727.499C788.907,717.335 788.875,717.399 788.91,716.522C789.044,713.207 796.151,712.858 799.388,717.568C805.214,726.042 794.355,739.002 789.697,736.118C788.906,735.628 788.872,728.191 788.869,727.499ZM802.498,840.924C808.834,841.002 809.088,841.819 810.482,840.482C812.069,838.957 809.452,794.181 811.48,792.471C812.995,791.193 824.877,794.491 824.859,789.506C824.835,782.539 826.312,778.076 820.49,777.92C816.802,777.821 775.694,776.719 774.371,777.149C772.398,777.79 772.132,790.909 774.496,791.515C776.302,791.978 787.718,790.902 787.867,793.419C788.382,802.085 787.366,839.78 789.464,840.581C790.803,841.092 790.781,840.789 802.498,840.924Z" style="fill:rgb(253,240,228);"/>
                <g>
                    <path d="M834.503,657.042C825.947,656.907 826.035,656.83 822.506,656.922C812.618,657.18 816.21,663.685 814.489,665.491C812.27,667.818 774.05,645.572 769.537,645.157C766.369,644.866 690.693,682.61 655.385,699.262C650.068,701.77 644.603,686.372 644.246,684.557C639.931,662.667 656.105,652.334 658.394,650.275C663.624,645.571 659.226,652.529 658.326,659.48C656.789,671.351 670.341,677.431 671.024,672.435C674.303,648.423 686.16,637.34 701.431,624.381C704.577,621.711 703.023,625.655 704.396,629.534C712.536,652.527 722.996,646.678 726.325,645.114C751.437,633.316 741.914,603.471 743.361,595.474C745.648,582.837 761.197,577.624 760.225,581.44C757.22,593.231 758.115,596.249 774.171,606.99C795.615,621.336 792.264,632.009 796.132,627.165C807.751,612.615 791.963,599.459 800.488,603.531C819.981,612.839 815.659,631.932 815.305,636.488C814.628,645.199 821.431,643.68 822.408,643.259C830.221,639.891 825.699,628.864 825.711,628.504C825.84,624.648 848.208,639.14 859.017,654.778C860.842,657.418 857.837,657.28 834.503,657.042Z" style="fill:rgb(211,66,2);"/>
                    <path d="M868.545,667.536C868.545,667.535 872.701,663.018 872.522,654.499C872.434,650.314 870.587,645.852 873.539,647.394C882.688,652.173 888.149,660.361 889.089,661.77C900.615,679.05 885.52,694.929 894.531,692.661C900.41,691.181 901.301,684.84 901.618,684.626C906.063,681.627 910.193,710.094 902.493,710.367C901.334,710.409 857.836,688.131 857.764,688.087C853.852,685.735 856.127,663.614 857.466,662.458C861.738,658.77 862.65,674.42 868.545,667.536Z" style="fill:rgb(211,64,2);"/>
                    <path d="M733.647,626.572C733.448,626.907 730.075,632.599 729.742,629.487C729.71,629.186 730.73,627.749 729.563,625.464C726.452,619.373 711.739,616.28 727.37,595.325C733.492,587.119 725.433,600.127 729.972,609.274C732.585,614.539 736.829,617.843 733.647,626.572Z" style="fill:rgb(211,60,1);"/>
                </g>
            </g>
        </g>
    </g>
</svg>
